<svg xmlns="http://www.w3.org/2000/svg" version="1.1" xmlns:xlink="http://www.w3.org/1999/xlink" width="256" height="256"><svg xmlns="http://www.w3.org/2000/svg" width="256" height="256" viewBox="0 0 24 24" fill="none" stroke="#c72323" stroke-width="3" stroke-linecap="round" stroke-linejoin="round" class="lucide lucide-house-wifi-icon lucide-house-wifi"><path d="M9.5 13.866a4 4 0 0 1 5 .01"></path><path d="M12 17h.01"></path><path d="M3 10a2 2 0 0 1 .709-1.528l7-6a2 2 0 0 1 2.582 0l7 6A2 2 0 0 1 21 10v9a2 2 0 0 1-2 2H5a2 2 0 0 1-2-2z"></path><path d="M7 10.754a8 8 0 0 1 10 0"></path></svg><style>@media (prefers-color-scheme: light) { :root { filter: none; } }
@media (prefers-color-scheme: dark) { :root { filter: none; } }
</style></svg>